<?xml version="1.0" encoding="UTF-8"?>
<!DOCTYPE svg PUBLIC "-//W3C//DTD SVG 1.1//EN" "http://www.w3.org/Graphics/SVG/1.1/DTD/svg11.dtd">
<svg xmlns="http://www.w3.org/2000/svg" version="1.1" width="512px" height="512px" style="shape-rendering:geometricPrecision; text-rendering:geometricPrecision; image-rendering:optimizeQuality; fill-rule:evenodd; clip-rule:evenodd" xmlns:xlink="http://www.w3.org/1999/xlink">
<g><path style="opacity:0.994" fill="#000000" d="M 35.5,-0.5 C 182.167,-0.5 328.833,-0.5 475.5,-0.5C 493.167,5.83333 505.167,17.8333 511.5,35.5C 511.5,182.167 511.5,328.833 511.5,475.5C 505.167,493.167 493.167,505.167 475.5,511.5C 328.833,511.5 182.167,511.5 35.5,511.5C 17.8333,505.167 5.83333,493.167 -0.5,475.5C -0.5,328.833 -0.5,182.167 -0.5,35.5C 1.87645,28.413 5.54311,22.0797 10.5,16.5C 10.4346,16.9382 10.6012,17.2716 11,17.5C 13.1667,15.3333 15.3333,13.1667 17.5,11C 17.2716,10.6012 16.9382,10.4346 16.5,10.5C 22.0797,5.54311 28.413,1.87645 35.5,-0.5 Z M 392.5,238.5 C 414.993,237.392 436.993,240.059 458.5,246.5C 458.667,261.17 458.5,275.837 458,290.5C 438.427,278.851 417.26,274.351 394.5,277C 385.118,277.775 377.285,281.608 371,288.5C 365.517,299.075 367.017,308.575 375.5,317C 379.5,319.667 383.5,322.333 387.5,325C 404.546,332.236 421.213,340.236 437.5,349C 466.572,369.074 475.072,395.907 463,429.5C 452.769,449.221 436.602,461.054 414.5,465C 381.611,471.631 349.611,468.798 318.5,456.5C 317.334,440.844 317.167,425.177 318,409.5C 343.204,429.275 371.37,435.108 402.5,427C 417.663,419.509 421.163,408.342 413,393.5C 408.474,388.494 403.307,384.327 397.5,381C 380.961,373.712 364.628,366.046 348.5,358C 316.595,336.222 308.762,307.722 325,272.5C 333.503,260.334 344.669,251.501 358.5,246C 369.73,242.39 381.063,239.89 392.5,238.5 Z M 118.5,243.5 C 177.5,243.5 236.5,243.5 295.5,243.5C 295.5,256.5 295.5,269.5 295.5,282.5C 274.167,282.5 252.833,282.5 231.5,282.5C 231.5,343.5 231.5,404.5 231.5,465.5C 215.167,465.5 198.833,465.5 182.5,465.5C 182.5,404.5 182.5,343.5 182.5,282.5C 161.167,282.5 139.833,282.5 118.5,282.5C 118.5,269.5 118.5,256.5 118.5,243.5 Z"/></g>
<g><path style="opacity:0.8" fill="#020509" d="M 16.5,10.5 C 16.9382,10.4346 17.2716,10.6012 17.5,11C 15.3333,13.1667 13.1667,15.3333 11,17.5C 10.6012,17.2716 10.4346,16.9382 10.5,16.5C 12.1667,14.1667 14.1667,12.1667 16.5,10.5 Z"/></g>
</svg>
